<svg width="162" height="74" viewBox="0 0 162 74" fill="none" xmlns="http://www.w3.org/2000/svg">
<g filter="url(#filter0_d_1_1762)">
<rect x="24" y="16" width="114" height="26" rx="13" fill="white" shape-rendering="crispEdges"/>
<mask id="mask0_1_1762" style="mask-type:alpha" maskUnits="userSpaceOnUse" x="32" y="18" width="22" height="22">
<rect x="32" y="18" width="22" height="22" fill="black"/>
</mask>
<g mask="url(#mask0_1_1762)">
<path d="M42.0833 36.7229C40.3569 36.509 38.9324 35.7564 37.8098 34.4651C36.6866 33.1745 36.125 31.6583 36.125 29.9166C36.125 28.9847 36.3083 28.091 36.675 27.2354C37.0417 26.3798 37.5611 25.6312 38.2333 24.9896L39.1958 25.975C38.6306 26.4791 38.2067 27.071 37.9244 27.7506C37.6415 28.4307 37.5 29.1528 37.5 29.9166C37.5 31.2611 37.9278 32.4451 38.7833 33.4687C39.6389 34.4923 40.7389 35.1187 42.0833 35.3479V36.7229ZM43.9167 36.7458V35.3708C45.2458 35.0958 46.3419 34.4541 47.2048 33.4458C48.0682 32.4375 48.5 31.2611 48.5 29.9166C48.5 28.3889 47.9653 27.0903 46.8958 26.0208C45.8264 24.9514 44.5278 24.4166 43 24.4166H42.6792L43.9167 25.6541L42.9542 26.6166L40.0667 23.7291L42.9542 20.8416L43.9167 21.8041L42.6792 23.0416H43C44.925 23.0416 46.5521 23.7062 47.8813 25.0354C49.2104 26.3646 49.875 27.9916 49.875 29.9166C49.875 31.643 49.3097 33.1479 48.1792 34.4312C47.0486 35.7146 45.6278 36.4861 43.9167 36.7458Z" fill="black"/>
</g>
<path d="M69.425 23.782V34.001H70.899V23.782H69.425ZM65.41 24.497C63.87 24.497 62.737 25.905 62.737 28.127C62.737 30.371 63.87 31.779 65.41 31.779C66.95 31.779 68.083 30.371 68.083 28.127C68.083 25.905 66.95 24.497 65.41 24.497ZM65.41 25.828C66.169 25.828 66.675 26.631 66.675 28.127C66.675 29.645 66.169 30.459 65.41 30.459C64.651 30.459 64.134 29.645 64.134 28.127C64.134 26.631 64.651 25.828 65.41 25.828ZM77.7514 25.399V26.543C77.7514 28.27 76.9264 30.151 75.2214 30.91L76.0464 32.065C77.9604 31.196 78.9174 28.897 78.9174 26.543V25.399H77.7514ZM78.0814 25.399V26.543C78.0814 28.809 79.0274 30.976 80.9634 31.812L81.7554 30.657C80.0504 29.953 79.2364 28.193 79.2364 26.543V25.399H78.0814ZM75.6284 24.772V25.971H81.3374V24.772H75.6284ZM82.2834 23.793V33.979H83.7574V23.793H82.2834ZM89.9275 25.157V26.334H92.9415V25.157H89.9275ZM89.9275 27.368V28.545H92.9415V27.368H89.9275ZM87.0015 30.283V31.438H92.4795V33.979H93.9425V30.283H87.0015ZM92.4795 23.793V29.821H93.9425V23.793H92.4795ZM88.2335 24.321C86.7045 24.321 85.5385 25.377 85.5385 26.84C85.5385 28.314 86.7045 29.37 88.2335 29.37C89.7515 29.37 90.9175 28.314 90.9175 26.84C90.9175 25.377 89.7515 24.321 88.2335 24.321ZM88.2335 25.564C88.9705 25.564 89.5315 26.037 89.5315 26.84C89.5315 27.654 88.9705 28.127 88.2335 28.127C87.4855 28.127 86.9355 27.654 86.9355 26.84C86.9355 26.037 87.4855 25.564 88.2335 25.564ZM105.712 23.793V33.979H107.098V23.793H105.712ZM104.491 27.698V28.886H106.185V27.698H104.491ZM103.523 23.947V33.517H104.887V23.947H103.523ZM100.091 25.377V26.279C100.091 28.237 99.6069 30.041 98.0779 30.921L98.9579 32.043C100.652 31.02 101.202 28.798 101.202 26.279V25.377H100.091ZM100.388 25.377V26.279C100.388 28.644 100.993 30.745 102.709 31.669L103.545 30.558C102.027 29.766 101.51 28.072 101.51 26.279V25.377H100.388ZM98.4079 24.827V26.004H103.039V24.827H98.4079ZM112.113 24.376V25.069C112.113 26.631 110.87 27.929 108.439 28.589L109.011 29.722C111.992 28.908 113.642 27.06 113.642 24.376H112.113ZM109 24.376V25.531H113.125V24.376H109ZM115.457 23.793V29.491H116.92V23.793H115.457ZM113.697 26.202V27.39H115.666V26.202H113.697ZM110.21 29.898V33.869H116.92V29.898H110.21ZM115.479 31.053V32.714H111.651V31.053H115.479ZM120.351 24.376V25.542C120.351 26.697 119.79 27.962 118.371 28.589L119.141 29.722C120.802 29.007 121.495 27.28 121.495 25.542V24.376H120.351ZM120.615 24.376V25.542C120.615 27.236 121.286 28.798 122.87 29.447L123.64 28.336C122.298 27.775 121.759 26.675 121.759 25.542V24.376H120.615ZM125.807 23.804V29.975H127.193V23.804H125.807ZM124.586 26.268V27.456H126.203V26.268H124.586ZM123.651 23.958V29.92H125.015V23.958H123.651ZM120.197 30.415V31.581H125.741V33.979H127.193V30.415H120.197Z" fill="#101010"/>
</g>
<defs>
<filter id="filter0_d_1_1762" x="0" y="0" width="162" height="74" filterUnits="userSpaceOnUse" color-interpolation-filters="sRGB">
<feFlood flood-opacity="0" result="BackgroundImageFix"/>
<feColorMatrix in="SourceAlpha" type="matrix" values="0 0 0 0 0 0 0 0 0 0 0 0 0 0 0 0 0 0 127 0" result="hardAlpha"/>
<feOffset dy="8"/>
<feGaussianBlur stdDeviation="12"/>
<feComposite in2="hardAlpha" operator="out"/>
<feColorMatrix type="matrix" values="0 0 0 0 0 0 0 0 0 0 0 0 0 0 0 0 0 0 0.1 0"/>
<feBlend mode="normal" in2="BackgroundImageFix" result="effect1_dropShadow_1_1762"/>
<feBlend mode="normal" in="SourceGraphic" in2="effect1_dropShadow_1_1762" result="shape"/>
</filter>
</defs>
</svg>
